<mxfile host="app.diagrams.net" agent="Mozilla/5.0 (Macintosh; Intel Mac OS X 10_15_7) AppleWebKit/537.36 (KHTML, like Gecko) Chrome/134.0.0.0 Safari/537.36" version="26.1.2">
  <diagram name="第 1 页" id="GDbKCuajYz0Do3prRXZw">
    <mxGraphModel dx="2069" dy="1954" grid="1" gridSize="10" guides="1" tooltips="1" connect="1" arrows="1" fold="1" page="1" pageScale="1" pageWidth="827" pageHeight="1169" math="0" shadow="0">
      <root>
        <mxCell id="0" />
        <mxCell id="1" parent="0" />
        <mxCell id="xzhucQesnsCn1omH9_tc-11" value="" style="rounded=1;whiteSpace=wrap;html=1;dashed=1;strokeWidth=2;strokeColor=#CCFFFF;fillColor=#FFCCCC;" parent="1" vertex="1">
          <mxGeometry x="40" y="320" width="730" height="180" as="geometry" />
        </mxCell>
        <mxCell id="xzhucQesnsCn1omH9_tc-3" value="" style="rounded=1;whiteSpace=wrap;html=1;dashed=1;strokeWidth=2;strokeColor=#CCFFFF;fillColor=#CCE5FF;" parent="1" vertex="1">
          <mxGeometry x="40" y="540" width="720" height="90" as="geometry" />
        </mxCell>
        <mxCell id="xzhucQesnsCn1omH9_tc-12" value="中间件" style="rounded=1;whiteSpace=wrap;html=1;fillColor=#FFCCCC;fontColor=#333333;strokeColor=#666666;" parent="1" vertex="1">
          <mxGeometry x="-30" y="320" width="55" height="180" as="geometry" />
        </mxCell>
        <mxCell id="xzhucQesnsCn1omH9_tc-13" value="" style="rounded=1;whiteSpace=wrap;html=1;dashed=1;strokeWidth=2;strokeColor=#CCFFFF;fillColor=#00FF80;" parent="1" vertex="1">
          <mxGeometry x="40" y="100" width="730" height="180" as="geometry" />
        </mxCell>
        <mxCell id="xzhucQesnsCn1omH9_tc-1" value="日志记录" style="rounded=1;whiteSpace=wrap;html=1;dashed=1;strokeWidth=2;strokeColor=#CCFFFF;fillColor=#FFFFCC;" parent="1" vertex="1">
          <mxGeometry x="780" y="-50" width="30" height="330" as="geometry" />
        </mxCell>
        <mxCell id="xzhucQesnsCn1omH9_tc-14" value="服务层" style="rounded=1;whiteSpace=wrap;html=1;fillColor=#00FF80;fontColor=#333333;strokeColor=#666666;" parent="1" vertex="1">
          <mxGeometry x="-30" y="100" width="55" height="180" as="geometry" />
        </mxCell>
        <mxCell id="xzhucQesnsCn1omH9_tc-15" value="存储" style="rounded=1;whiteSpace=wrap;html=1;fillColor=#CCE5FF;fontColor=#333333;strokeColor=#666666;" parent="1" vertex="1">
          <mxGeometry x="-30" y="540" width="55" height="90" as="geometry" />
        </mxCell>
        <mxCell id="xzhucQesnsCn1omH9_tc-16" value="MySQL" style="rounded=0;whiteSpace=wrap;html=1;" parent="1" vertex="1">
          <mxGeometry x="60" y="567.5" width="60" height="35" as="geometry" />
        </mxCell>
        <mxCell id="xzhucQesnsCn1omH9_tc-17" value="ElasticSearch" style="rounded=0;whiteSpace=wrap;html=1;" parent="1" vertex="1">
          <mxGeometry x="190" y="567.5" width="80" height="35" as="geometry" />
        </mxCell>
        <mxCell id="xzhucQesnsCn1omH9_tc-18" value="OSS" style="rounded=0;whiteSpace=wrap;html=1;" parent="1" vertex="1">
          <mxGeometry x="354" y="567.5" width="60" height="35" as="geometry" />
        </mxCell>
        <mxCell id="xzhucQesnsCn1omH9_tc-19" value="大数据" style="rounded=0;whiteSpace=wrap;html=1;" parent="1" vertex="1">
          <mxGeometry x="530" y="567.5" width="60" height="35" as="geometry" />
        </mxCell>
        <mxCell id="xzhucQesnsCn1omH9_tc-20" value="Redis" style="rounded=0;whiteSpace=wrap;html=1;" parent="1" vertex="1">
          <mxGeometry x="680" y="567.5" width="60" height="35" as="geometry" />
        </mxCell>
        <mxCell id="xzhucQesnsCn1omH9_tc-23" value="权限控制" style="rounded=1;whiteSpace=wrap;html=1;dashed=1;strokeWidth=2;strokeColor=#CCFFFF;fillColor=#FFFFCC;" parent="1" vertex="1">
          <mxGeometry x="820" y="-50" width="30" height="120" as="geometry" />
        </mxCell>
        <mxCell id="xzhucQesnsCn1omH9_tc-24" value="监控&amp;amp;报警" style="rounded=1;whiteSpace=wrap;html=1;dashed=1;strokeWidth=2;strokeColor=#CCFFFF;fillColor=#FFCCE6;align=center;verticalAlign=top;" parent="1" vertex="1">
          <mxGeometry x="860" y="-150" width="80" height="780" as="geometry" />
        </mxCell>
        <mxCell id="xzhucQesnsCn1omH9_tc-26" value="API层" style="rounded=1;whiteSpace=wrap;html=1;fillColor=#F8CECC;fontColor=#333333;strokeColor=#666666;" parent="1" vertex="1">
          <mxGeometry x="-30" y="-50" width="55" height="110" as="geometry" />
        </mxCell>
        <mxCell id="xzhucQesnsCn1omH9_tc-27" value="" style="rounded=1;whiteSpace=wrap;html=1;dashed=1;strokeWidth=2;strokeColor=#CCFFFF;fillColor=#F8CECC;" parent="1" vertex="1">
          <mxGeometry x="40" y="-50" width="730" height="110" as="geometry" />
        </mxCell>
        <mxCell id="xzhucQesnsCn1omH9_tc-28" value="" style="rounded=1;whiteSpace=wrap;html=1;dashed=1;strokeWidth=2;strokeColor=#CCFFFF;fillColor=#FF99CC;" parent="1" vertex="1">
          <mxGeometry x="40" y="-150" width="730" height="60" as="geometry" />
        </mxCell>
        <mxCell id="xzhucQesnsCn1omH9_tc-29" value="网关层" style="rounded=1;whiteSpace=wrap;html=1;fillColor=#FF99CC;fontColor=#333333;strokeColor=#666666;" parent="1" vertex="1">
          <mxGeometry x="-30" y="-150" width="55" height="50" as="geometry" />
        </mxCell>
        <mxCell id="xzhucQesnsCn1omH9_tc-30" value="" style="rounded=1;whiteSpace=wrap;html=1;dashed=1;strokeWidth=2;strokeColor=#CCFFFF;fillColor=#E2FFDB;" parent="1" vertex="1">
          <mxGeometry x="35" y="-250" width="730" height="60" as="geometry" />
        </mxCell>
        <mxCell id="xzhucQesnsCn1omH9_tc-33" value="PC 端" style="rounded=0;whiteSpace=wrap;html=1;" parent="1" vertex="1">
          <mxGeometry x="85" y="-240" width="80" height="40" as="geometry" />
        </mxCell>
        <mxCell id="xzhucQesnsCn1omH9_tc-34" value="移动端" style="rounded=0;whiteSpace=wrap;html=1;" parent="1" vertex="1">
          <mxGeometry x="355" y="-240" width="80" height="40" as="geometry" />
        </mxCell>
        <mxCell id="xzhucQesnsCn1omH9_tc-35" value="外部访问API" style="rounded=0;whiteSpace=wrap;html=1;" parent="1" vertex="1">
          <mxGeometry x="635" y="-240" width="80" height="40" as="geometry" />
        </mxCell>
        <mxCell id="xzhucQesnsCn1omH9_tc-38" value="&lt;font style=&quot;color: rgb(0, 204, 0);&quot;&gt;HTTPS、REST、Json、token&lt;/font&gt;" style="text;html=1;align=center;verticalAlign=middle;resizable=0;points=[];autosize=1;strokeColor=none;fillColor=none;" parent="1" vertex="1">
          <mxGeometry x="375" y="-190" width="190" height="30" as="geometry" />
        </mxCell>
        <mxCell id="OdMvZ81qA7tzputkd07s-1" value="Nginx" style="rounded=0;whiteSpace=wrap;html=1;" vertex="1" parent="1">
          <mxGeometry x="360" y="-140" width="80" height="40" as="geometry" />
        </mxCell>
        <mxCell id="OdMvZ81qA7tzputkd07s-2" value="" style="shape=singleArrow;direction=south;whiteSpace=wrap;html=1;shadow=0;dashed=0;strokeColor=default;align=center;verticalAlign=middle;fontFamily=Helvetica;fontSize=12;fontColor=default;fillColor=default;" vertex="1" parent="1">
          <mxGeometry x="370" y="-90" width="60" height="40" as="geometry" />
        </mxCell>
        <mxCell id="OdMvZ81qA7tzputkd07s-3" value="" style="shape=singleArrow;direction=south;whiteSpace=wrap;html=1;shadow=0;dashed=0;strokeColor=default;align=center;verticalAlign=middle;fontFamily=Helvetica;fontSize=12;fontColor=default;fillColor=default;" vertex="1" parent="1">
          <mxGeometry x="370" y="-190" width="60" height="40" as="geometry" />
        </mxCell>
        <mxCell id="OdMvZ81qA7tzputkd07s-4" value="PC 端" style="rounded=0;whiteSpace=wrap;html=1;" vertex="1" parent="1">
          <mxGeometry x="60" y="-30" width="80" height="40" as="geometry" />
        </mxCell>
        <mxCell id="OdMvZ81qA7tzputkd07s-5" value="订单" style="rounded=0;whiteSpace=wrap;html=1;" vertex="1" parent="1">
          <mxGeometry x="60" y="120" width="80" height="40" as="geometry" />
        </mxCell>
        <mxCell id="OdMvZ81qA7tzputkd07s-6" value="Kafka" style="rounded=0;whiteSpace=wrap;html=1;" vertex="1" parent="1">
          <mxGeometry x="60" y="340" width="80" height="40" as="geometry" />
        </mxCell>
        <mxCell id="OdMvZ81qA7tzputkd07s-8" value="" style="shape=singleArrow;direction=south;whiteSpace=wrap;html=1;shadow=0;dashed=0;strokeColor=default;align=center;verticalAlign=middle;fontFamily=Helvetica;fontSize=12;fontColor=default;fillColor=default;" vertex="1" parent="1">
          <mxGeometry x="370" y="60" width="60" height="40" as="geometry" />
        </mxCell>
        <mxCell id="OdMvZ81qA7tzputkd07s-9" value="" style="shape=singleArrow;direction=south;whiteSpace=wrap;html=1;shadow=0;dashed=0;strokeColor=default;align=center;verticalAlign=middle;fontFamily=Helvetica;fontSize=12;fontColor=default;fillColor=default;" vertex="1" parent="1">
          <mxGeometry x="370" y="280" width="60" height="40" as="geometry" />
        </mxCell>
        <mxCell id="OdMvZ81qA7tzputkd07s-10" value="" style="shape=singleArrow;direction=south;whiteSpace=wrap;html=1;shadow=0;dashed=0;strokeColor=default;align=center;verticalAlign=middle;fontFamily=Helvetica;fontSize=12;fontColor=default;fillColor=default;" vertex="1" parent="1">
          <mxGeometry x="365" y="500" width="60" height="40" as="geometry" />
        </mxCell>
        <mxCell id="OdMvZ81qA7tzputkd07s-11" value="Canal" style="rounded=0;whiteSpace=wrap;html=1;" vertex="1" parent="1">
          <mxGeometry x="170" y="340" width="80" height="40" as="geometry" />
        </mxCell>
        <mxCell id="OdMvZ81qA7tzputkd07s-12" value="Redis" style="rounded=0;whiteSpace=wrap;html=1;" vertex="1" parent="1">
          <mxGeometry x="275" y="340" width="80" height="40" as="geometry" />
        </mxCell>
        <mxCell id="OdMvZ81qA7tzputkd07s-13" value="用户" style="rounded=0;whiteSpace=wrap;html=1;" vertex="1" parent="1">
          <mxGeometry x="160" y="120" width="80" height="40" as="geometry" />
        </mxCell>
        <mxCell id="OdMvZ81qA7tzputkd07s-14" value="计税" style="rounded=0;whiteSpace=wrap;html=1;" vertex="1" parent="1">
          <mxGeometry x="260" y="120" width="80" height="40" as="geometry" />
        </mxCell>
      </root>
    </mxGraphModel>
  </diagram>
</mxfile>
